<svg id="katman_1" data-name="katman 1" xmlns="http://www.w3.org/2000/svg" viewBox="0 0 499.25 196"><path d="M137.11,192.51a2,2,0,0,1-1.45,3.49H95a2,2,0,0,1-2-2V153.3a2.05,2.05,0,0,1,3.5-1.45l8.8,8.8.52-.52a41.52,41.52,0,0,0,0-58.73L91.41,87a5.15,5.15,0,0,1,0-7.28L107.18,64a5.16,5.16,0,0,1,7.29,0l14.35,14.36a74.23,74.23,0,0,1,0,104.85l-.52.52Z"/><path d="M67.05,121.31,45.73,100A42.48,42.48,0,0,1,34.4,60.37a3.36,3.36,0,0,0-2.18-4A44.05,44.05,0,0,1,11.08,41.25a3.36,3.36,0,0,0-5.79.82,75.9,75.9,0,0,0,16.87,81.48l21.33,21.32a4,4,0,0,0,5.72,0L67.05,127A4,4,0,0,0,67.05,121.31Z"/><path d="M57.45,39.63A23.14,23.14,0,0,1,42.1,46.38a22.9,22.9,0,0,1-3.41-.1A23.29,23.29,0,0,1,24.6,39.63a23.06,23.06,0,0,1-6.42-12.19,22.23,22.23,0,0,1-.35-2.78A23.25,23.25,0,0,1,24.6,6.78a22.18,22.18,0,0,1,7.65-5.07,23.18,23.18,0,0,1,25.2,5.07A23.55,23.55,0,0,1,57.45,39.63Z"/><path d="M240.78,144.66q-8.5,0-13.44-6.15t-5-17.32q0-11.31,5-17.46t13.44-6.15a16.61,16.61,0,0,1,9.95,2.9,15.62,15.62,0,0,1,5.74,8h21.34Q274.57,95.32,265,88t-24.11-7.28a39.55,39.55,0,0,0-20.07,5,35.25,35.25,0,0,0-13.73,14.13q-5,9.12-4.94,21.28t4.94,21.28a35.27,35.27,0,0,0,13.73,14.14,39.55,39.55,0,0,0,20.07,5q14.43,0,24-7.49a36.12,36.12,0,0,0,12.87-20.22H256.47Q252.8,144.66,240.78,144.66Z"/><path d="M359,100a36.73,36.73,0,0,0-14.49-14.21,44.37,44.37,0,0,0-41,0A36.79,36.79,0,0,0,289.05,100a41.68,41.68,0,0,0-5.3,21.2,42.55,42.55,0,0,0,5.16,21.21,36.14,36.14,0,0,0,14.2,14.21,41.28,41.28,0,0,0,20.37,5,42.71,42.71,0,0,0,20.71-5A37.68,37.68,0,0,0,358.9,142.4a40.78,40.78,0,0,0,5.44-21.21A41.58,41.58,0,0,0,359,100Zm-17.87,33.93a19,19,0,0,1-7.57,7.84,20.57,20.57,0,0,1-10.11,2.62,18.37,18.37,0,0,1-14.07-6q-5.6-6-5.59-17.18T309.55,104a18.85,18.85,0,0,1,14.22-6,19.28,19.28,0,0,1,14.34,6q5.88,6,5.87,17.18A26.64,26.64,0,0,1,341.16,133.92Z"/><path d="M445.56,100a36.79,36.79,0,0,0-14.49-14.21,44.37,44.37,0,0,0-41,0A36.82,36.82,0,0,0,375.57,100a41.67,41.67,0,0,0-5.29,21.2,42.55,42.55,0,0,0,5.15,21.21,36.06,36.06,0,0,0,14.22,14.21,41.17,41.17,0,0,0,20.35,5,42.72,42.72,0,0,0,20.72-5,37.59,37.59,0,0,0,14.7-14.21,40.78,40.78,0,0,0,5.44-21.21A41.68,41.68,0,0,0,445.56,100Zm-17.89,33.93a18.84,18.84,0,0,1-7.56,7.84A20.49,20.49,0,0,1,410,144.38a18.4,18.4,0,0,1-14.07-6q-5.56-6-5.58-17.18c0-7.44,1.92-13.17,5.72-17.18a18.88,18.88,0,0,1,14.21-6,19.29,19.29,0,0,1,14.35,6q5.87,6,5.87,17.18A26.4,26.4,0,0,1,427.67,133.92Z"/><path d="M499.25,144.88v16.68H486.81a42.94,42.94,0,0,1-5.07-.28l-.18,0q-19.77-2.4-19.76-24V99.5h0V83.24h0V63.87h0v-.31h20V138a7.06,7.06,0,0,0,1.89,5.08q1.92,1.77,6.43,1.77Z"/></svg>